<mxfile host="app.diagrams.net" agent="Mozilla/5.0 (Windows NT 10.0; Win64; x64) AppleWebKit/537.36 (KHTML, like Gecko) Chrome/130.0.0.0 Safari/537.36" version="24.8.4">
  <diagram name="PÃ¡gina-1" id="BCHF-5Q5EMjY2CzNp5F7">
    <mxGraphModel dx="1050" dy="579" grid="0" gridSize="10" guides="1" tooltips="1" connect="1" arrows="1" fold="1" page="1" pageScale="1" pageWidth="700" pageHeight="1000" math="0" shadow="0">
      <root>
        <mxCell id="0" />
        <mxCell id="1" parent="0" />
        <mxCell id="UvF5SmiHXKKENpEFAL-r-1" value="&lt;font style=&quot;font-size: 24px;&quot;&gt;Jugar&amp;nbsp;&lt;/font&gt;" style="rounded=0;whiteSpace=wrap;html=1;" parent="1" vertex="1">
          <mxGeometry x="82" y="603" width="237" height="126" as="geometry" />
        </mxCell>
        <mxCell id="UvF5SmiHXKKENpEFAL-r-2" value="&lt;font style=&quot;font-size: 24px;&quot;&gt;Configurar&lt;/font&gt;" style="rounded=0;whiteSpace=wrap;html=1;" parent="1" vertex="1">
          <mxGeometry x="374" y="603" width="237" height="126" as="geometry" />
        </mxCell>
        <mxCell id="UvF5SmiHXKKENpEFAL-r-3" value="&lt;div style=&quot;&quot;&gt;&lt;span data-darkreader-inline-color=&quot;&quot; data-darkreader-inline-bgcolor=&quot;&quot; style=&quot;font-size: 31px; background-color: initial; color: rgb(0, 0, 0); --darkreader-inline-bgcolor: initial; --darkreader-inline-color: #e8e6e3;&quot;&gt;&lt;b&gt;Aprendamos a Limpiar&lt;/b&gt;&lt;/span&gt;&lt;/div&gt;&lt;div style=&quot;font-size: 31px;&quot;&gt;&lt;br&gt;&lt;/div&gt;" style="text;html=1;align=center;verticalAlign=middle;whiteSpace=wrap;rounded=0;" parent="1" vertex="1">
          <mxGeometry x="154" y="56" width="392" height="167" as="geometry" />
        </mxCell>
        <mxCell id="UvF5SmiHXKKENpEFAL-r-7" value="&lt;font style=&quot;font-size: 24px;&quot;&gt;Acerca de&lt;/font&gt;" style="rounded=0;whiteSpace=wrap;html=1;" parent="1" vertex="1">
          <mxGeometry x="232" y="802" width="237" height="126" as="geometry" />
        </mxCell>
      </root>
    </mxGraphModel>
  </diagram>
</mxfile>
